<svg width="307" height="69" viewBox="0 0 307 69" fill="none" xmlns="http://www.w3.org/2000/svg">
<path fill-rule="evenodd" clip-rule="evenodd" d="M38.7865 33.0937L46.3281 28.7969L53.7448 24.5052L61.2812 20.2083V11.6198L53.7448 15.9167L46.3281 20.2083L38.7865 24.5052L31.3698 28.7969L38.7865 33.0937Z" fill="#4361EE"/>
<mask id="mask0_2_100" style="mask-type:luminance" maskUnits="userSpaceOnUse" x="0" y="19" width="81" height="50">
<path d="M0.703117 19.3333H80.7031V68.6458H0.703117V19.3333Z" fill="white"/>
</mask>
<g mask="url(#mask0_2_100)">
<path fill-rule="evenodd" clip-rule="evenodd" d="M8.63541 50.1563L25.75 59.9375L33.1615 64.2292L40.6979 68.6458L48.125 64.2292L55.6615 59.9375L80.6719 45.6198V37.0313L55.6615 51.349L48.125 55.6406L40.6979 59.9375L33.1615 55.6406L25.75 51.349L8.63541 41.5677V32.9792L25.75 42.75L33.1615 47.0521L40.6979 51.349L48.125 47.0521L55.6615 42.75L80.6719 28.3229V19.7344L55.6615 34.1719L48.125 38.4635L40.6979 42.75L33.1615 38.4635L25.75 34.1719L0.734367 19.7344V45.6198L8.63541 50.1563Z" fill="#4361EE"/>
</g>
<mask id="mask1_2_100" style="mask-type:luminance" maskUnits="userSpaceOnUse" x="15" y="0" width="34" height="25">
<path d="M15.6667 0.645828H49V24.6667H15.6667V0.645828Z" fill="white"/>
</mask>
<g mask="url(#mask1_2_100)">
<path fill-rule="evenodd" clip-rule="evenodd" d="M23.2292 24.151L30.6458 19.7344L38.1927 15.4427L48.9583 9.23437V0.645828L38.1927 6.84375L30.6458 11.1458L23.2292 15.4427L15.6927 19.7344L23.2292 24.151Z" fill="#4361EE"/>
</g>
<path d="M137.068 36.3188C137.068 38.0272 136.74 39.6418 136.089 41.1522C135.433 42.6678 134.553 43.9855 133.443 45.1105C132.329 46.2355 131.027 47.1261 129.527 47.7772C128.037 48.4282 126.433 48.7563 124.714 48.7563C123.006 48.7563 121.402 48.4282 119.902 47.7772C118.412 47.1261 117.115 46.2355 116.006 45.1105C114.891 43.9855 114.011 42.6678 113.36 41.1522C112.704 39.6418 112.381 38.0272 112.381 36.3188V14.5063H117.339V36.3188C117.339 37.3345 117.527 38.3084 117.902 39.2355C118.287 40.1522 118.818 40.9751 119.485 41.6938C120.152 42.4022 120.933 42.9647 121.839 43.3813C122.74 43.7876 123.698 43.9855 124.714 43.9855C125.724 43.9855 126.678 43.7876 127.568 43.3813C128.469 42.9647 129.256 42.4022 129.922 41.6938C130.589 40.9751 131.11 40.1522 131.485 39.2355C131.86 38.3084 132.047 37.3345 132.047 36.3188V14.5063H137.068V36.3188Z" fill="#222222"/>
<path d="M162.101 14.5063V18.9647H146.435V28.173H160.393V32.798H146.435V43.6522H162.101V48.2772H141.476V14.5063H162.101Z" fill="#222222"/>
<path d="M180.295 14.5063C181.628 14.5063 182.878 14.7667 184.045 15.2772C185.222 15.7772 186.253 16.4595 187.128 17.3188C188.003 18.1678 188.691 19.173 189.191 20.3397C189.701 21.4959 189.961 22.7355 189.961 24.0688C189.961 25.4022 189.701 26.6626 189.191 27.8397C188.691 29.0063 188.003 30.022 187.128 30.8813C186.253 31.7459 185.222 32.423 184.045 32.923C182.878 33.4126 181.628 33.6522 180.295 33.6522L171.524 33.6938V48.2772H166.566V14.5063H180.295ZM180.295 29.0272C180.961 29.0272 181.586 28.897 182.17 28.6313C182.763 28.3553 183.284 27.9959 183.732 27.548C184.175 27.1053 184.524 26.5792 184.774 25.9647C185.024 25.3397 185.149 24.6834 185.149 23.9855C185.149 23.2772 185.024 22.6261 184.774 22.0272C184.524 21.4178 184.175 20.8813 183.732 20.423C183.284 19.9647 182.763 19.6053 182.17 19.3397C181.586 19.0636 180.961 18.923 180.295 18.923H171.524V29.0272H180.295Z" fill="#222222"/>
<path d="M198.247 48.2772H193.622V25.4647H198.206L198.247 48.2772ZM195.914 20.5063C195.091 20.5063 194.393 20.2147 193.81 19.6313C193.237 19.0376 192.956 18.3293 192.956 17.5063C192.956 16.673 193.237 15.9751 193.81 15.4022C194.393 14.8345 195.091 14.548 195.914 14.548C196.732 14.548 197.424 14.8345 197.997 15.4022C198.581 15.9751 198.872 16.673 198.872 17.5063C198.872 18.3293 198.581 19.0376 197.997 19.6313C197.424 20.2147 196.732 20.5063 195.914 20.5063Z" fill="#222222"/>
<path d="M216.066 30.173L232.316 48.3188H225.587L212.775 33.4647L207.441 38.798V48.2772H202.483V14.5063H207.441V32.6522L211.15 28.6938L225.212 14.5063H231.733L216.066 30.173Z" fill="#222222"/>
<path d="M234.243 45.798C234.243 44.9803 234.524 44.2772 235.097 43.6938C235.68 43.1001 236.378 42.798 237.201 42.798C238.034 42.798 238.732 43.1001 239.305 43.6938C239.873 44.2772 240.159 44.9803 240.159 45.798C240.159 46.6313 239.873 47.3345 239.305 47.9022C238.732 48.4699 238.034 48.7563 237.201 48.7563C236.378 48.7563 235.68 48.4699 235.097 47.9022C234.524 47.3345 234.243 46.6313 234.243 45.798Z" fill="#222222"/>
<path d="M249.818 48.2772H245.193V25.4647H248.881L249.818 27.4647C250.579 26.7303 251.506 26.1261 252.589 25.6522C253.672 25.1678 254.844 24.923 256.11 24.923C256.943 24.923 257.881 25.0584 258.922 25.3188C259.974 25.5688 260.954 26.048 261.86 26.7563C262.761 27.4543 263.516 28.4178 264.131 29.6522C264.756 30.8918 265.068 32.4959 265.068 34.4647V48.2772H260.693V34.4022C260.693 33.4334 260.537 32.6053 260.235 31.923C259.928 31.2303 259.527 30.6834 259.027 30.2772C258.537 29.8605 257.985 29.5688 257.36 29.4022C256.745 29.2251 256.11 29.1313 255.443 29.1313C254.943 29.1313 254.365 29.2303 253.714 29.423C253.058 29.6053 252.448 29.9126 251.881 30.3397C251.308 30.772 250.823 31.3136 250.422 31.9647C250.016 32.6209 249.818 33.4178 249.818 34.3605V48.2772Z" fill="#222222"/>
<path d="M280.589 48.8397C278.933 48.8397 277.386 48.5324 275.943 47.923C274.495 47.298 273.235 46.4543 272.151 45.3813C271.078 44.298 270.235 43.0272 269.61 41.5688C268.985 40.1001 268.672 38.5376 268.672 36.8813C268.672 35.2303 268.964 33.673 269.547 32.2147C270.141 30.7563 270.943 29.4959 271.943 28.423C272.943 27.3397 274.11 26.4855 275.443 25.8605C276.776 25.2355 278.203 24.923 279.735 24.923C281.287 24.923 282.724 25.1938 284.047 25.7355C285.365 26.2772 286.506 27.1261 287.464 28.2772C288.433 29.4178 289.193 30.8709 289.735 32.6313C290.276 34.397 290.547 36.5011 290.547 38.9438H273.589C273.808 39.7668 274.157 40.5376 274.631 41.2563C275.115 41.9647 275.677 42.5845 276.318 43.1105C276.969 43.6418 277.698 44.048 278.506 44.3397C279.323 44.6209 280.177 44.7563 281.068 44.7563C282.276 44.7563 283.391 44.5376 284.422 44.0897C285.464 43.647 286.344 43.0584 287.068 42.3188L289.922 45.173C288.808 46.2876 287.448 47.173 285.839 47.8397C284.24 48.5063 282.49 48.8397 280.589 48.8397ZM279.735 29.1313C278.995 29.1313 278.302 29.2772 277.651 29.5688C277.011 29.8501 276.412 30.2459 275.86 30.7563C275.302 31.2563 274.823 31.8605 274.422 32.5688C274.016 33.2668 273.724 34.022 273.547 34.8397H285.589C285.532 34.0793 285.36 33.3501 285.068 32.6522C284.787 31.9595 284.391 31.3501 283.881 30.8188C283.365 30.2928 282.766 29.8813 282.089 29.5897C281.407 29.2876 280.62 29.1313 279.735 29.1313Z" fill="#222222"/>
<path d="M306.461 48.2355C305.153 48.6782 303.862 48.9438 302.586 49.0272C301.32 49.1209 300.179 48.9438 299.169 48.4855C298.153 48.0272 297.325 47.2251 296.69 46.0688C296.049 44.9022 295.731 43.272 295.731 41.173V29.5897H292.398V26.4022L295.731 25.4647V19.3605H300.356V25.4647H306.544V29.5897H300.356V41.9022C300.356 42.6522 300.44 43.2511 300.606 43.6938C300.784 44.1418 301.086 44.4751 301.502 44.6938C301.919 44.9178 302.461 45.0272 303.127 45.0272C303.794 45.0272 304.596 44.9647 305.544 44.8397L306.461 48.2355Z" fill="#222222"/>
</svg>
